<svg version="1.1" id="Layer_1" xmlns="http://www.w3.org/2000/svg" xmlns:xlink="http://www.w3.org/1999/xlink" x="0px" y="0px"
	 width="100%" viewBox="0 0 554 482" enable-background="new 0 0 554 482" xml:space="preserve">
<path fill="#FFFFFF" opacity="1.000000" stroke="none" 
	d="
M344.000000,483.000000 
	C229.360870,483.000000 115.221733,483.000000 1.041299,483.000000 
	C1.041299,322.399628 1.041299,161.799225 1.041299,1.099418 
	C185.555801,1.099418 370.111664,1.099418 554.833740,1.099418 
	C554.833740,161.666534 554.833740,322.333252 554.833740,483.000000 
	C484.799194,483.000000 414.649597,483.000000 344.000000,483.000000 
M431.500000,222.005127 
	C458.390015,222.005127 485.280060,222.005127 512.100586,222.005127 
	C512.100586,211.754395 512.100586,202.213684 512.100586,192.414917 
	C449.759796,192.414917 387.881195,192.414917 326.047180,192.414917 
	C326.047180,202.330292 326.047180,212.022903 326.047180,222.005127 
	C361.282867,222.005127 395.891418,222.005127 431.500000,222.005127 
M455.872101,249.708466 
	C454.375519,249.633484 452.879089,249.497040 451.382294,249.492523 
	C410.584106,249.369308 369.785919,249.257889 328.987671,249.157990 
	C328.024811,249.155624 327.061554,249.307999 326.051025,249.392136 
	C326.051025,259.327911 326.051025,269.013336 326.051025,278.641968 
	C388.501984,278.641968 450.337311,278.641968 512.136719,278.641968 
	C512.136719,268.902588 512.136719,259.528320 512.136719,249.717789 
	C493.417694,249.717789 475.116302,249.717789 455.872101,249.708466 
M97.544502,373.881927 
	C98.469696,375.060944 99.351418,376.277283 100.326813,377.413208 
	C109.814964,388.463043 126.090172,392.795654 139.899597,387.967682 
	C154.511429,382.859161 164.464615,369.836700 165.001160,355.125549 
	C165.581512,339.212616 157.307480,325.527649 143.398651,319.395905 
	C128.528519,312.840332 111.225334,316.335999 100.834663,327.994873 
	C89.304100,340.932770 87.907578,357.978790 97.544502,373.881927 
M45.625599,284.687805 
	C50.946735,304.138275 68.469872,315.387604 88.249176,312.050812 
	C108.341789,308.661224 121.988998,288.335236 117.717079,268.161713 
	C113.427414,247.904404 92.958252,235.006409 73.120857,239.753860 
	C54.668934,244.169769 41.055717,261.879303 45.625599,284.687805 
M178.666672,121.017212 
	C178.935318,120.229721 179.227356,119.449333 179.469147,118.653679 
	C184.699997,101.442253 177.049881,83.350639 161.044037,75.067986 
	C146.947144,67.773170 127.050964,72.013222 117.139931,84.665665 
	C107.769966,96.627373 105.956978,109.857086 112.587730,123.529121 
	C119.134407,137.027802 130.615067,144.095184 145.509933,143.826630 
	C160.808777,143.550797 171.900406,135.790833 178.666672,121.017212 
M102.256317,151.058456 
	C101.939484,150.958832 101.622459,150.859818 101.305847,150.759521 
	C83.335281,145.066910 65.732918,152.349838 57.569580,168.855377 
	C50.100002,183.958191 55.117195,203.141556 69.051743,212.757797 
	C84.115814,223.153519 103.465614,221.199600 115.647049,207.753830 
	C132.183624,189.500854 125.811691,161.033508 102.256317,151.058456 
M197.874817,91.673309 
	C210.435974,100.684608 226.000381,101.259407 238.040024,93.156593 
	C250.167679,84.994553 256.009186,70.065575 252.542694,56.092670 
	C249.053986,42.030296 236.516327,31.126751 222.553268,30.012001 
	C206.883499,28.760996 192.571426,37.263802 186.963837,51.155724 
	C181.177353,65.490768 185.123459,80.745621 197.874817,91.673309 
M314.351410,435.921539 
	C330.009308,425.006195 333.810272,404.622681 323.028473,389.388763 
	C312.464355,374.462402 291.564484,371.125183 276.619995,381.978424 
	C262.612183,392.151459 259.009491,411.815796 268.468964,426.468750 
	C278.160858,441.481750 297.497589,445.679810 314.351410,435.921539 
M210.248306,372.272705 
	C188.316422,372.136597 173.125305,389.804749 177.012177,410.928284 
	C180.151855,427.990997 196.911926,439.127655 214.763626,436.013184 
	C231.185547,433.148163 242.979187,416.458313 240.275208,399.910339 
	C237.758057,384.505737 228.143707,375.424469 210.248306,372.272705 
M325.779083,48.784035 
	C319.455750,41.370354 311.556976,37.528259 301.679077,37.876640 
	C289.704315,38.298969 281.034363,44.011810 275.926056,54.602440 
	C270.513489,65.823868 271.870239,76.762665 279.726440,86.415237 
	C287.654602,96.156197 298.296326,99.244743 310.255859,96.172020 
	C330.798737,90.894012 338.625427,67.440468 325.779083,48.784035 
M389.258148,66.213531 
	C383.668152,61.389668 377.162201,59.566006 369.847015,60.013397 
	C358.021973,60.736614 348.072266,68.443336 345.240601,79.261314 
	C342.189484,90.917809 346.680481,102.434479 356.725769,108.713936 
	C367.285095,115.314720 379.643677,114.665504 388.764771,107.030884 
	C400.889679,96.881966 401.300079,80.613770 389.258148,66.213531 
M392.877228,400.228912 
	C393.472626,399.042389 394.130035,397.882538 394.653595,396.665161 
	C398.863556,386.876312 396.214813,374.736084 388.406342,367.914856 
	C379.661194,360.275360 367.658325,358.818634 358.334351,364.265167 
	C348.260925,370.149445 343.292847,381.236176 345.852539,392.264618 
	C348.266968,402.667267 354.916504,409.363617 365.069397,411.690979 
	C376.332184,414.272736 385.629974,410.255432 392.877228,400.228912 
z"/>
<path fill="#7A7A7A" opacity="1.000000" stroke="none" 
	d="
M431.000000,222.005127 
	C395.891418,222.005127 361.282867,222.005127 326.047180,222.005127 
	C326.047180,212.022903 326.047180,202.330292 326.047180,192.414917 
	C387.881195,192.414917 449.759796,192.414917 512.100586,192.414917 
	C512.100586,202.213684 512.100586,211.754395 512.100586,222.005127 
	C485.280060,222.005127 458.390015,222.005127 431.000000,222.005127 
z"/>
<path fill="#797979" opacity="1.000000" stroke="none" 
	d="
M456.343506,249.713135 
	C475.116302,249.717789 493.417694,249.717789 512.136719,249.717789 
	C512.136719,259.528320 512.136719,268.902588 512.136719,278.641968 
	C450.337311,278.641968 388.501984,278.641968 326.051025,278.641968 
	C326.051025,269.013336 326.051025,259.327911 326.051025,249.392136 
	C327.061554,249.307999 328.024811,249.155624 328.987671,249.157990 
	C369.785919,249.257889 410.584106,249.369308 451.382294,249.492523 
	C452.879089,249.497040 454.375519,249.633484 456.343506,249.713135 
z"/>
<path fill="#523CF0" opacity="1.000000" stroke="none" 
	d="
M97.334465,373.582123 
	C87.907578,357.978790 89.304100,340.932770 100.834663,327.994873 
	C111.225334,316.335999 128.528519,312.840332 143.398651,319.395905 
	C157.307480,325.527649 165.581512,339.212616 165.001160,355.125549 
	C164.464615,369.836700 154.511429,382.859161 139.899597,387.967682 
	C126.090172,392.795654 109.814964,388.463043 100.326813,377.413208 
	C99.351418,376.277283 98.469696,375.060944 97.334465,373.582123 
z"/>
<path fill="#523CF0" opacity="1.000000" stroke="none" 
	d="
M45.486145,284.293335 
	C41.055717,261.879303 54.668934,244.169769 73.120857,239.753860 
	C92.958252,235.006409 113.427414,247.904404 117.717079,268.161713 
	C121.988998,288.335236 108.341789,308.661224 88.249176,312.050812 
	C68.469872,315.387604 50.946735,304.138275 45.486145,284.293335 
z"/>
<path fill="#523CF0" opacity="1.000000" stroke="none" 
	d="
M178.484909,121.358971 
	C171.900406,135.790833 160.808777,143.550797 145.509933,143.826630 
	C130.615067,144.095184 119.134407,137.027802 112.587730,123.529121 
	C105.956978,109.857086 107.769966,96.627373 117.139931,84.665665 
	C127.050964,72.013222 146.947144,67.773170 161.044037,75.067986 
	C177.049881,83.350639 184.699997,101.442253 179.469147,118.653679 
	C179.227356,119.449333 178.935318,120.229721 178.484909,121.358971 
z"/>
<path fill="#523CF0" opacity="1.000000" stroke="none" 
	d="
M102.624222,151.188278 
	C125.811691,161.033508 132.183624,189.500854 115.647049,207.753830 
	C103.465614,221.199600 84.115814,223.153519 69.051743,212.757797 
	C55.117195,203.141556 50.100002,183.958191 57.569580,168.855377 
	C65.732918,152.349838 83.335281,145.066910 101.305847,150.759521 
	C101.622459,150.859818 101.939484,150.958832 102.624222,151.188278 
z"/>
<path fill="#523CF0" opacity="1.000000" stroke="none" 
	d="
M197.599915,91.441666 
	C185.123459,80.745621 181.177353,65.490768 186.963837,51.155724 
	C192.571426,37.263802 206.883499,28.760996 222.553268,30.012001 
	C236.516327,31.126751 249.053986,42.030296 252.542694,56.092670 
	C256.009186,70.065575 250.167679,84.994553 238.040024,93.156593 
	C226.000381,101.259407 210.435974,100.684608 197.599915,91.441666 
z"/>
<path fill="#523CF0" opacity="1.000000" stroke="none" 
	d="
M314.037964,436.107697 
	C297.497589,445.679810 278.160858,441.481750 268.468964,426.468750 
	C259.009491,411.815796 262.612183,392.151459 276.619995,381.978424 
	C291.564484,371.125183 312.464355,374.462402 323.028473,389.388763 
	C333.810272,404.622681 330.009308,425.006195 314.037964,436.107697 
z"/>
<path fill="#523DF0" opacity="1.000000" stroke="none" 
	d="
M210.677185,372.315643 
	C228.143707,375.424469 237.758057,384.505737 240.275208,399.910339 
	C242.979187,416.458313 231.185547,433.148163 214.763626,436.013184 
	C196.911926,439.127655 180.151855,427.990997 177.012177,410.928284 
	C173.125305,389.804749 188.316422,372.136597 210.677185,372.315643 
z"/>
<path fill="#523CF0" opacity="1.000000" stroke="none" 
	d="
M325.983887,49.082474 
	C338.625427,67.440468 330.798737,90.894012 310.255859,96.172020 
	C298.296326,99.244743 287.654602,96.156197 279.726440,86.415237 
	C271.870239,76.762665 270.513489,65.823868 275.926056,54.602440 
	C281.034363,44.011810 289.704315,38.298969 301.679077,37.876640 
	C311.556976,37.528259 319.455750,41.370354 325.983887,49.082474 
z"/>
<path fill="#523CF0" opacity="1.000000" stroke="none" 
	d="
M389.520142,66.458267 
	C401.300079,80.613770 400.889679,96.881966 388.764771,107.030884 
	C379.643677,114.665504 367.285095,115.314720 356.725769,108.713936 
	C346.680481,102.434479 342.189484,90.917809 345.240601,79.261314 
	C348.072266,68.443336 358.021973,60.736614 369.847015,60.013397 
	C377.162201,59.566006 383.668152,61.389668 389.520142,66.458267 
z"/>
<path fill="#533DF0" opacity="1.000000" stroke="none" 
	d="
M392.676971,400.538849 
	C385.629974,410.255432 376.332184,414.272736 365.069397,411.690979 
	C354.916504,409.363617 348.266968,402.667267 345.852539,392.264618 
	C343.292847,381.236176 348.260925,370.149445 358.334351,364.265167 
	C367.658325,358.818634 379.661194,360.275360 388.406342,367.914856 
	C396.214813,374.736084 398.863556,386.876312 394.653595,396.665161 
	C394.130035,397.882538 393.472626,399.042389 392.676971,400.538849 
z"/>
</svg>